<?xml version="1.0" encoding="UTF-8"?> <svg xmlns="http://www.w3.org/2000/svg" width="37" height="37" viewBox="0 0 37 37" fill="none"><g clip-path="url(#clip0_1484_221)"><path d="M8 28.3803C10.5129 28.3803 12.55 26.3432 12.55 23.8303C12.55 21.3174 10.5129 19.2803 8 19.2803C5.48711 19.2803 3.45 21.3174 3.45 23.8303C3.45 26.3432 5.48711 28.3803 8 28.3803Z" stroke="white" stroke-width="1.5" stroke-miterlimit="10" stroke-linecap="round"></path><path d="M8 28.3701C6.29494 28.3696 4.64247 28.9604 3.32413 30.0417C2.00579 31.123 1.10315 32.6279 0.77 34.3001C0.7348 34.4724 0.737874 34.6502 0.779004 34.8211C0.820134 34.9921 0.898317 35.1519 1.00802 35.2892C1.11773 35.4266 1.25627 35.5382 1.41386 35.6161C1.57146 35.694 1.74424 35.7364 1.92 35.7401H14.07C14.2464 35.7381 14.4201 35.697 14.5786 35.6196C14.7371 35.5422 14.8764 35.4306 14.9864 35.2928C15.0965 35.155 15.1745 34.9944 15.2149 34.8227C15.2553 34.6511 15.2571 34.4725 15.22 34.3001C14.8872 32.6296 13.986 31.1259 12.6697 30.0448C11.3535 28.9637 9.70334 28.372 8 28.3701V28.3701Z" stroke="white" stroke-width="1.5" stroke-miterlimit="10" stroke-linecap="round"></path><path d="M26 0.750079C24.6525 0.744789 23.3172 1.0063 22.0712 1.51954C20.8253 2.03278 19.6932 2.78758 18.7404 3.74044C17.7875 4.6933 17.0327 5.82535 16.5195 7.07132C16.0062 8.3173 15.7447 9.65255 15.75 11.0001V21.1701H26C28.7079 21.1701 31.3048 20.0944 33.2196 18.1796C35.1343 16.2649 36.21 13.6679 36.21 10.9601C36.21 8.25222 35.1343 5.65526 33.2196 3.74052C31.3048 1.82577 28.7079 0.750079 26 0.750079V0.750079Z" stroke="white" stroke-width="1.5" stroke-miterlimit="10" stroke-linecap="round"></path><path d="M19.97 11.9102H22.15" stroke="white" stroke-width="1.5" stroke-miterlimit="10" stroke-linecap="round"></path><path d="M26.81 11.9102H24.62" stroke="white" stroke-width="1.5" stroke-miterlimit="10" stroke-linecap="round"></path><path d="M31.46 11.9102H29.28" stroke="white" stroke-width="1.5" stroke-miterlimit="10" stroke-linecap="round"></path></g><defs><clipPath id="clip0_1484_221"><rect width="36.92" height="36.49" fill="white"></rect></clipPath></defs></svg> 