<?xml version="1.0" encoding="UTF-8"?> <svg xmlns="http://www.w3.org/2000/svg" width="35" height="43" viewBox="0 0 35 43" fill="none"><path d="M28.9547 14.21L17.1547 2L5.81472 13.77C3.54978 16.0041 1.99419 18.8567 1.34269 21.9707C0.691198 25.0846 0.972748 28.3216 2.1521 31.2763C3.33144 34.231 5.35619 36.7722 7.97284 38.5817C10.5895 40.3912 13.6818 41.3886 16.8626 41.4491C20.0434 41.5096 23.1714 40.6304 25.8549 38.9217C28.5385 37.213 30.6584 34.7506 31.9492 31.8429C33.24 28.9351 33.6444 25.7112 33.1118 22.5747C32.5791 19.4383 31.1331 16.5286 28.9547 14.21V14.21Z" stroke="white" stroke-width="1.5" stroke-miterlimit="10" stroke-linecap="round"></path><path d="M25.2447 22.75C25.207 23.3686 24.9876 23.9623 24.6141 24.4568C24.2405 24.9513 23.7294 25.3246 23.1447 25.53C23.1109 25.5464 23.0824 25.572 23.0624 25.6038C23.0425 25.6356 23.0319 25.6724 23.0319 25.71C23.0319 25.7476 23.0425 25.7844 23.0624 25.8162C23.0824 25.8481 23.1109 25.8736 23.1447 25.89C24.6447 26.82 25.3447 28.2 24.5547 30.47C23.4847 33.52 20.9447 33.78 17.5547 33.14L16.8947 35.78C16.8521 35.9501 16.7444 36.0968 16.5948 36.1884C16.4452 36.28 16.2657 36.3093 16.0947 36.27L15.3947 36.09C15.225 36.0475 15.0792 35.9394 14.9892 35.7894C14.8991 35.6393 14.8724 35.4597 14.9147 35.29L15.5647 32.69L13.9847 32.28L13.2447 34.92C13.2022 35.0923 13.0929 35.2407 12.9411 35.3326C12.7892 35.4244 12.6071 35.4523 12.4347 35.41L11.7447 35.23C11.66 35.2102 11.5801 35.1735 11.5099 35.1223C11.4396 35.071 11.3803 35.0061 11.3355 34.9315C11.2907 34.8569 11.2614 34.7741 11.2493 34.688C11.2371 34.6018 11.2424 34.5141 11.2647 34.43L11.9247 31.78L10.5047 31.42L8.68473 30.92C8.59432 30.9025 8.50904 30.8648 8.4353 30.8096C8.36155 30.7545 8.30125 30.6833 8.25892 30.6015C8.21659 30.5198 8.19332 30.4295 8.19086 30.3374C8.1884 30.2454 8.20682 30.1539 8.24473 30.07L8.74473 28.92C8.80236 28.7847 8.90697 28.6747 9.03928 28.6104C9.17159 28.5461 9.32269 28.5317 9.46473 28.57L10.3947 28.8C10.5777 28.8568 10.7757 28.8393 10.946 28.7514C11.1162 28.6634 11.2451 28.5121 11.3047 28.33L12.5947 23.13L12.8047 23.18L12.6047 23.12L13.5247 19.41C13.5458 19.2732 13.5383 19.1335 13.5026 18.9997C13.4668 18.866 13.4038 18.7411 13.3173 18.633C13.2308 18.5249 13.1228 18.4359 13.0001 18.3717C12.8775 18.3075 12.7428 18.2695 12.6047 18.26C12.3328 18.1698 12.0556 18.0963 11.7747 18.04C11.6951 18.0212 11.62 17.9869 11.5538 17.9389C11.4875 17.891 11.4314 17.8305 11.3886 17.7607C11.3459 17.691 11.3173 17.6135 11.3047 17.5328C11.292 17.452 11.2954 17.3695 11.3147 17.29L11.5447 16.38C11.5849 16.2211 11.6863 16.0845 11.8269 16.0002C11.9674 15.9159 12.1356 15.8906 12.2947 15.93L14.4247 16.46L15.6847 16.75L16.3347 14.14C16.3795 13.9696 16.4896 13.8236 16.6412 13.7337C16.7928 13.6439 16.9737 13.6174 17.1447 13.66L17.8347 13.83C17.9198 13.851 17.9999 13.8887 18.0703 13.941C18.1406 13.9932 18.1999 14.059 18.2446 14.1344C18.2893 14.2098 18.3185 14.2933 18.3305 14.3801C18.3426 14.4669 18.3372 14.5553 18.3147 14.64L17.6847 17.18L19.2447 17.62L19.8747 15.09C19.9195 14.9196 20.0296 14.7736 20.1812 14.6837C20.3328 14.5939 20.5137 14.5674 20.6847 14.61L21.3747 14.78C21.5449 14.8227 21.6915 14.9304 21.7831 15.0799C21.8747 15.2295 21.904 15.4091 21.8647 15.58L21.2447 18.2C23.7347 19.06 25.5647 20.35 25.2447 22.75Z" stroke="white" stroke-width="1.5" stroke-miterlimit="10" stroke-linecap="round"></path><path d="M17.0147 20.1198L16.2947 22.9898C16.2583 23.1357 16.2809 23.29 16.3577 23.4192C16.4345 23.5484 16.5592 23.6421 16.7047 23.6798C18.1347 24.0598 20.8047 24.6798 21.2847 22.6798C21.7647 20.6798 19.1247 19.9898 17.6947 19.6798C17.6211 19.6623 17.5446 19.6598 17.47 19.6726C17.3954 19.6855 17.3242 19.7133 17.2606 19.7544C17.1971 19.7955 17.1425 19.8491 17.1002 19.9119C17.058 19.9747 17.0289 20.0455 17.0147 20.1198Z" stroke="white" stroke-width="1.5" stroke-miterlimit="10" stroke-linecap="round"></path><path d="M15.5247 26.0798L14.7147 29.3498C14.6779 29.4943 14.6992 29.6474 14.774 29.7764C14.8487 29.9054 14.9711 30 15.1147 30.0398C16.7947 30.4798 20.1147 31.2898 20.6747 29.0998C21.2447 26.8098 17.8947 26.0398 16.2047 25.6598C16.0592 25.6293 15.9074 25.6558 15.7808 25.734C15.6543 25.8122 15.5626 25.936 15.5247 26.0798V26.0798Z" stroke="white" stroke-width="1.5" stroke-miterlimit="10" stroke-linecap="round"></path></svg> 