<?xml version="1.0" encoding="UTF-8"?> <svg xmlns="http://www.w3.org/2000/svg" width="34" height="42" viewBox="0 0 34 42" fill="none"><g clip-path="url(#clip0_1500_522)"><path d="M19.1599 11.87H30.2799" stroke="white" stroke-width="1.5" stroke-miterlimit="10" stroke-linecap="round"></path><path d="M30.28 0.75V11.87" stroke="white" stroke-width="1.5" stroke-miterlimit="10" stroke-linecap="round"></path><path d="M0.750001 20.93C0.74852 17.4883 1.84857 14.1366 3.88919 11.3652C5.9298 8.59376 8.80384 6.54819 12.0907 5.52781C15.3776 4.50744 18.9048 4.56582 22.1561 5.69441C25.4075 6.823 28.2122 8.96255 30.16 11.8" stroke="white" stroke-width="1.5" stroke-miterlimit="10" stroke-linecap="round"></path><path d="M14.59 29.98H3.46997" stroke="white" stroke-width="1.5" stroke-miterlimit="10" stroke-linecap="round"></path><path d="M3.46997 41.1V29.98" stroke="white" stroke-width="1.5" stroke-miterlimit="10" stroke-linecap="round"></path><path d="M33.0001 20.93C32.9994 24.3708 31.8978 27.7211 29.8565 30.4908C27.8151 33.2606 24.941 35.3045 21.6546 36.3236C18.3682 37.3427 14.8419 37.2836 11.5916 36.1547C8.34126 35.0259 5.53738 32.8867 3.59009 30.05" stroke="white" stroke-width="1.5" stroke-miterlimit="10" stroke-linecap="round"></path></g><defs><clipPath id="clip0_1500_522"><rect width="33.75" height="41.85" fill="white"></rect></clipPath></defs></svg> 