<?xml version="1.0" encoding="UTF-8"?> <svg xmlns="http://www.w3.org/2000/svg" width="41" height="37" viewBox="0 0 41 37" fill="none"><g clip-path="url(#clip0_1500_553)"><path d="M4.24 21.73C6.16747 21.73 7.73 20.1675 7.73 18.24C7.73 16.3125 6.16747 14.75 4.24 14.75C2.31253 14.75 0.75 16.3125 0.75 18.24C0.75 20.1675 2.31253 21.73 4.24 21.73Z" stroke="white" stroke-width="1.5" stroke-miterlimit="10" stroke-linecap="round"></path><path d="M20.3999 21.73C22.3274 21.73 23.8899 20.1675 23.8899 18.24C23.8899 16.3125 22.3274 14.75 20.3999 14.75C18.4724 14.75 16.9099 16.3125 16.9099 18.24C16.9099 20.1675 18.4724 21.73 20.3999 21.73Z" stroke="white" stroke-width="1.5" stroke-miterlimit="10" stroke-linecap="round"></path><path d="M10.3599 7.14001L5.8999 14.86" stroke="white" stroke-width="1.5" stroke-miterlimit="10" stroke-linecap="round"></path><path d="M7.72998 18.24H16.91" stroke="white" stroke-width="1.5" stroke-miterlimit="10" stroke-linecap="round"></path><path d="M12.3201 35.73C14.2476 35.73 15.8101 34.1675 15.8101 32.24C15.8101 30.3125 14.2476 28.75 12.3201 28.75C10.3926 28.75 8.83008 30.3125 8.83008 32.24C8.83008 34.1675 10.3926 35.73 12.3201 35.73Z" stroke="white" stroke-width="1.5" stroke-miterlimit="10" stroke-linecap="round"></path><path d="M5.77002 21.39L10.23 29.11" stroke="white" stroke-width="1.5" stroke-miterlimit="10" stroke-linecap="round"></path><path d="M14.0601 29.21L18.6501 21.26" stroke="white" stroke-width="1.5" stroke-miterlimit="10" stroke-linecap="round"></path><path d="M28.48 35.73C30.4075 35.73 31.97 34.1675 31.97 32.24C31.97 30.3125 30.4075 28.75 28.48 28.75C26.5525 28.75 24.99 30.3125 24.99 32.24C24.99 34.1675 26.5525 35.73 28.48 35.73Z" stroke="white" stroke-width="1.5" stroke-miterlimit="10" stroke-linecap="round"></path><path d="M15.8101 32.49H24.7301" stroke="white" stroke-width="1.5" stroke-miterlimit="10" stroke-linecap="round"></path><path d="M26.7299 29.22L22.1399 21.27" stroke="white" stroke-width="1.5" stroke-miterlimit="10" stroke-linecap="round"></path><path d="M36.5701 21.74C38.4976 21.74 40.0601 20.1775 40.0601 18.25C40.0601 16.3225 38.4976 14.76 36.5701 14.76C34.6426 14.76 33.0801 16.3225 33.0801 18.25C33.0801 20.1775 34.6426 21.74 36.5701 21.74Z" stroke="white" stroke-width="1.5" stroke-miterlimit="10" stroke-linecap="round"></path><path d="M30.45 29.34L34.91 21.62" stroke="white" stroke-width="1.5" stroke-miterlimit="10" stroke-linecap="round"></path><path d="M33.0799 18.25H23.8999" stroke="white" stroke-width="1.5" stroke-miterlimit="10" stroke-linecap="round"></path><path d="M28.49 7.74001C30.4175 7.74001 31.98 6.17748 31.98 4.25001C31.98 2.32254 30.4175 0.76001 28.49 0.76001C26.5625 0.76001 25 2.32254 25 4.25001C25 6.17748 26.5625 7.74001 28.49 7.74001Z" stroke="white" stroke-width="1.5" stroke-miterlimit="10" stroke-linecap="round"></path><path d="M35.0401 15.1L30.5801 7.37" stroke="white" stroke-width="1.5" stroke-miterlimit="10" stroke-linecap="round"></path><path d="M26.7499 7.27002L22.1599 15.22" stroke="white" stroke-width="1.5" stroke-miterlimit="10" stroke-linecap="round"></path><path d="M12.3301 7.73C14.2576 7.73 15.8201 6.16747 15.8201 4.24C15.8201 2.31253 14.2576 0.75 12.3301 0.75C10.4026 0.75 8.84009 2.31253 8.84009 4.24C8.84009 6.16747 10.4026 7.73 12.3301 7.73Z" stroke="white" stroke-width="1.5" stroke-miterlimit="10" stroke-linecap="round"></path><path d="M25.0001 3.98999H16.0801" stroke="white" stroke-width="1.5" stroke-miterlimit="10" stroke-linecap="round"></path><path d="M14.0701 7.27002L18.6601 15.22" stroke="white" stroke-width="1.5" stroke-miterlimit="10" stroke-linecap="round"></path></g><defs><clipPath id="clip0_1500_553"><rect width="40.81" height="36.49" fill="white"></rect></clipPath></defs></svg> 