<?xml version="1.0" encoding="UTF-8"?> <svg xmlns="http://www.w3.org/2000/svg" width="33" height="40" viewBox="0 0 33 40" fill="none"><g clip-path="url(#clip0_1500_583)"><path d="M20.0001 14.62C19.9979 13.9868 19.8337 13.3647 19.5231 12.8129C19.2125 12.2611 18.7658 11.7979 18.2255 11.4676C17.6853 11.1372 17.0695 10.9507 16.4368 10.9256C15.8041 10.9006 15.1754 11.0379 14.6108 11.3245C14.0462 11.6112 13.5643 12.0375 13.211 12.5631C12.8578 13.0886 12.6449 13.6958 12.5927 14.3269C12.5405 14.958 12.6507 15.5919 12.9128 16.1683C13.1749 16.7448 13.5802 17.2445 14.0901 17.62C14.2277 17.7261 14.3389 17.8625 14.4152 18.0186C14.4916 18.1747 14.5308 18.3463 14.5301 18.52V24.69C14.5301 24.9393 14.6291 25.1784 14.8054 25.3547C14.9817 25.531 15.2208 25.63 15.4701 25.63H17.1201C17.3694 25.63 17.6085 25.531 17.7847 25.3547C17.961 25.1784 18.0601 24.9393 18.0601 24.69V18.48C18.0569 18.3059 18.0952 18.1335 18.1717 17.977C18.2482 17.8206 18.3607 17.6845 18.5001 17.58C18.9621 17.2364 19.3381 16.7902 19.5984 16.2766C19.8587 15.7629 19.9962 15.1959 20.0001 14.62Z" stroke="white" stroke-width="1.5" stroke-miterlimit="10" stroke-linecap="round"></path><path d="M16.25 0.75H10.61C10.3457 0.750484 10.0876 0.829695 9.86849 0.977525C9.64942 1.12536 9.47936 1.3351 9.38 1.58C8.21 4.52 5.89 5.06 2 5.56C1.65449 5.61228 1.33891 5.78594 1.10984 6.04983C0.88077 6.31371 0.753198 6.65057 0.75 7V21.88C0.75 34.66 16.25 38.31 16.25 38.31" stroke="white" stroke-width="1.5" stroke-miterlimit="10" stroke-linecap="round"></path><path d="M16.25 0.75H21.89C22.1543 0.750484 22.4124 0.829695 22.6315 0.977525C22.8506 1.12536 23.0206 1.3351 23.12 1.58C24.29 4.52 26.61 5.06 30.47 5.58C30.8176 5.62519 31.1377 5.79313 31.3724 6.0535C31.6071 6.31388 31.741 6.64957 31.75 7V21.88C31.75 34.66 16.25 38.31 16.25 38.31" stroke="white" stroke-width="1.5" stroke-miterlimit="10" stroke-linecap="round"></path></g><defs><clipPath id="clip0_1500_583"><rect width="32.5" height="39.06" fill="white"></rect></clipPath></defs></svg> 