<?xml version="1.0" encoding="UTF-8"?> <svg xmlns="http://www.w3.org/2000/svg" width="38" height="37" viewBox="0 0 38 37" fill="none"><g clip-path="url(#clip0_1500_575)"><path d="M34.17 16.4C34.3442 17.3905 34.4312 18.3944 34.43 19.4C34.426 22.7298 33.435 25.9837 31.5822 28.7504C29.7294 31.5171 27.098 33.6724 24.0205 34.9439C20.9431 36.2154 17.5578 36.5461 14.2924 35.894C11.0271 35.242 8.02838 33.6366 5.67526 31.2806C3.32215 28.9247 1.72028 25.9241 1.07212 22.658C0.423968 19.3919 0.758622 16.007 2.03379 12.931C3.30895 9.8551 5.46739 7.22623 8.23628 5.37671C11.0052 3.52719 14.2602 2.54004 17.59 2.54004C18.7624 2.54289 19.9316 2.6635 21.08 2.90004" stroke="white" stroke-width="1.5" stroke-miterlimit="10" stroke-linecap="round"></path><path d="M36.5799 7.57C36.5799 8.43 35.4499 9.06 35.1399 9.8C34.8299 10.54 35.1399 11.8 34.5799 12.4C34.0199 13 32.7599 12.63 31.9899 12.95C31.2199 13.27 30.6099 14.39 29.7599 14.39C28.9099 14.39 28.2699 13.26 27.5299 13C26.7899 12.74 25.5299 13 24.9299 12.45C24.3299 11.9 24.6999 10.62 24.3799 9.85C24.0599 9.08 22.9399 8.48 22.9399 7.62C22.9399 6.76 24.0699 6.14 24.3799 5.39C24.6899 4.64 24.3799 3.39 24.9299 2.8C25.4799 2.21 26.7599 2.56 27.5299 2.24C28.2999 1.92 28.8999 0.75 29.7599 0.75C30.6199 0.75 31.2399 1.88 31.9999 2.19C32.7599 2.5 33.9999 2.19 34.5899 2.75C35.1799 3.31 34.8299 4.57 35.1499 5.34C35.4699 6.11 36.5799 6.71 36.5799 7.57Z" stroke="white" stroke-width="1.5" stroke-miterlimit="10" stroke-linecap="round"></path><path d="M17.59 20.16C19.8488 20.16 21.68 18.3288 21.68 16.07C21.68 13.8111 19.8488 11.98 17.59 11.98C15.3312 11.98 13.5 13.8111 13.5 16.07C13.5 18.3288 15.3312 20.16 17.59 20.16Z" stroke="white" stroke-width="1.5" stroke-miterlimit="10" stroke-linecap="round"></path><path d="M17.59 20.16C16.057 20.1584 14.5709 20.6889 13.3855 21.661C12.2 22.6331 11.3887 23.9864 11.09 25.49C11.0579 25.642 11.0593 25.7991 11.094 25.9505C11.1288 26.1019 11.1961 26.2439 11.2912 26.3666C11.3864 26.4894 11.5071 26.5899 11.6451 26.6613C11.783 26.7327 11.9348 26.7732 12.09 26.78H23.05C23.2051 26.7732 23.357 26.7327 23.4949 26.6613C23.6328 26.5899 23.7536 26.4894 23.8487 26.3666C23.9439 26.2439 24.0112 26.1019 24.0459 25.9505C24.0807 25.7991 24.0821 25.642 24.05 25.49C23.7509 23.994 22.9449 22.6469 21.7681 21.6759C20.5913 20.7049 19.1156 20.1695 17.59 20.16V20.16Z" stroke="white" stroke-width="1.5" stroke-miterlimit="10" stroke-linecap="round"></path><path d="M29.7601 8.99002C30.5443 8.99002 31.1801 8.35427 31.1801 7.57002C31.1801 6.78578 30.5443 6.15002 29.7601 6.15002C28.9758 6.15002 28.3401 6.78578 28.3401 7.57002C28.3401 8.35427 28.9758 8.99002 29.7601 8.99002Z" stroke="white" stroke-width="1.5" stroke-miterlimit="10" stroke-linecap="round"></path></g><defs><clipPath id="clip0_1500_575"><rect width="37.33" height="36.97" fill="white"></rect></clipPath></defs></svg> 